#!OML:ASF E:\basketball\basketball\Project 1\Capture day 1\Session 1\Subject.ASF
:FULLY-SPECIFIED
:DEGREES
1
root -32.5506 14.8468 -13.9076 57.7761 69.967 34.9786
lowerback -2.9471 -4.48819 -16.6617
upperback 1.54948 -5.40147 3.78884
thorax 5.32228 -3.31956 13.1302
lowerneck -3.98102 -3.25623 -12.8409
upperneck -10.6148 -3.00947 13.3721
head -2.00223 -1.31012 6.23347
rclavicle -5.56597e-015 1.43125e-014
rhumerus -23.8463 -30.0365 -65.5031
rradius 105.555
rwrist -35.615
rhand -17.2388 19.2235
rfingers 7.12502
rthumb 9.00487 -10.5643
lclavicle -5.56597e-015 1.43125e-014
lhumerus -49.9635 -21.9599 101.034
lradius 96.3307
lwrist 18.267
lhand -20.6448 20.0712
lfingers 7.12502
lthumb 5.71725 49.9741
rfemur -79.7561 8.2346 15.8434
rtibia 64.8675
rfoot -6.93002 -3.08534
rtoes -37.8366
lfemur 22.9184 10.7676 -28.2398
ltibia 2.54444e-014
lfoot -33.5146 12.5038
ltoes -14.7352
2
root -31.8827 14.9603 -13.8236 59.417 69.7806 36.8343
lowerback -3.12595 -5.02442 -16.3869
upperback 1.54115 -6.10557 3.83127
thorax 5.63951 -3.6886 12.8974
lowerneck -4.03967 -2.73905 -13.1345
upperneck -10.6769 -2.32582 12.8496
head -2.11422 -0.942596 6.1253
rclavicle 9.26337e-014 1.98785e-014
rhumerus -22.7207 -28.61 -67.8848
rradius 107.995
rwrist -33.0441
rhand -17.805 19.5246
rfingers 7.12502
rthumb 8.45855 -10.286
lclavicle 9.26337e-014 1.98785e-014
lhumerus -51.6996 -20.965 100.995
lradius 94.9378
lwrist 17.9391
lhand -21.4197 49.3102
lfingers 7.12502
lthumb 4.96915 79.2319
rfemur -77.8009 6.94366 16.2095
rtibia 60.1218
rfoot -7.53405 -3.0227
rtoes -37.9779
lfemur 24.1924 10.344 -28.7827
ltibia 7.31528e-014
lfoot -33.3586 13.8539
ltoes 27.1913
3
root -31.2614 14.9688 -13.7582 60.5833 69.7455 38.2955
lowerback -2.96813 -5.10851 -15.7378
upperback 1.48743 -6.26702 3.6382
thorax 5.44085 -3.71822 12.285
lowerneck -4.02652 -2.476 -12.309
upperneck -10.7479 -2.03163 12.0887
head -2.20399 -0.806177 5.74668
rclavicle 4.6118e-014 2.14687e-014
rhumerus -21.9891 -28.0489 -70.1561
rradius 110.59
rwrist -29.374
rhand -17.736 20.0467
rfingers 7.12502
rthumb 8.52515 -9.76118
lclavicle 4.6118e-014 2.14687e-014
lhumerus -53.8316 -21.162 101.224
lradius 93.1528
lwrist 17.7162
lhand -31.964 32.6292
lfingers 7.12502
lthumb -5.21397 62.545
rfemur -76.1372 5.69861 16.8374
rtibia 55.3473
rfoot -6.8791 -2.46217
rtoes -36.2284
lfemur 26.2089 9.98609 -29.1854
ltibia 1.90833e-014
lfoot -32.4437 14.3134
ltoes 51.1407
4
root -30.5477 15.2676 -13.6325 61.1399 69.7488 38.9391
lowerback -3.08129 -5.29869 -15.2331
upperback 1.54625 -6.53473 3.86676
thorax 5.62752 -3.86059 12.1993
lowerneck -4.89982 -2.1861 -11.9712
upperneck -10.3839 -1.63854 11.1089
head -2.02962 -0.573943 5.36777
rclavicle 4.92986e-014 -3.18055e-014
rhumerus -20.0197 -26.5354 -72.4464
rradius 112.907
rwrist -24.6808
rhand -17.2556 20.3967
rfingers 7.12502
rthumb 8.98868 -9.39176
lclavicle 4.92986e-014 -3.18055e-014
lhumerus -55.3456 -20.6127 101.883
lradius 90.7936
lwrist 17.8529
lhand -37.5866 15.8627
lfingers 7.12502
lthumb -10.6405 45.5733
rfemur -72.4609 4.37786 17.889
rtibia 49.843
rfoot -6.74618 -2.18278
rtoes -33.4446
lfemur 27.7164 10.1939 -30.3351
ltibia 4.45278e-014
lfoot -35.6045 -3.02305
ltoes 36.2068
5
root -29.8563 15.4804 -13.5217 61.3303 69.6476 39.0729
lowerback -3.24489 -5.53364 -14.3848
upperback 1.47863 -6.86719 3.84008
thorax 5.63987 -3.99033 11.6119
lowerneck -5.53957 -1.74995 -11.2761
upperneck -10.1242 -1.07816 10.1343
head -1.93771 -0.280971 4.94042
rclavicle 1.59028e-015 7.95139e-015
rhumerus -18.2862 -24.0298 -74.9812
rradius 115.197
rwrist -19.1081
rhand -16.8343 20.6169
rfingers 7.12502
rthumb 9.39527 -9.15372
lclavicle 1.59028e-015 7.95139e-015
lhumerus -57.1818 -19.7854 102.172
lradius 88.3458
lwrist 18.5399
lhand -36.4857 18.2433
lfingers 7.12502
lthumb -9.57846 48.0055
rfemur -69.3946 3.20717 18.8421
rtibia 44.9404
rfoot -5.82812 -1.99397
rtoes -30.2109
lfemur 29.4355 10.6293 -31.5569
ltibia 2.8625e-014
lfoot -34.7539 -18.49
ltoes 17.8906
6
root -29.183 15.6293 -13.4388 61.3457 69.6787 39.8443
lowerback -2.92956 -5.57814 -13.8953
upperback 1.94382 -6.9738 3.96997
thorax 5.95845 -4.08004 11.4653
lowerneck -5.89539 -1.46501 -10.7534
upperneck -10.8481 -0.686542 9.13346
head -2.15462 -0.0598926 4.54994
rclavicle 1.02573e-013 -4.29375e-014
rhumerus -15.9512 -21.077 -76.8151
rradius 117.275
rwrist -13.1482
rhand -16.3062 20.5197
rfingers 7.12502
rthumb 9.90475 -9.22728
lclavicle 1.02573e-013 -4.29375e-014
lhumerus -58.153 -19.2473 102.901
lradius 85.3538
lwrist 19.4359
lhand -35.5728 20.3924
lfingers 7.12502
lthumb -8.6976 50.1932
rfemur -65.5407 1.50368 20.1297
rtibia 40.4984
rfoot -4.13212 -2.65157
rtoes -38.7377
lfemur 17.2372 10.4998 -31.4592
ltibia 28.8229
lfoot -24.149 -14.1974
ltoes 17.7254
7
root -28.5219 15.7518 -13.3562 60.9229 69.7443 39.8775
lowerback -2.28934 -5.7094 -13.4653
upperback 1.91735 -7.27655 4.48876
thorax 5.67473 -4.21387 11.8204
lowerneck -6.389 -1.07326 -10.7373
upperneck -10.9252 -0.171271 8.09108
head -2.1656 0.234637 4.22384
rclavicle -3.97569e-014 -3.02153e-014
rhumerus -13.9242 -16.5333 -77.5437
rradius 119.006
rwrist -6.92307
rhand -16.2313 20.3824
rfingers 7.12502
rthumb 9.97701 -9.36114
lclavicle -3.97569e-014 -3.02153e-014
lhumerus -59.365 -17.6388 104.254
lradius 81.8444
lwrist 20.4691
lhand -34.5742 22.2245
lfingers 7.12502
lthumb -7.73382 52.0631
rfemur -62.2969 -0.012095 21.2331
rtibia 37.6247
rfoot -3.42335 -2.7839
rtoes -35.8349
lfemur 12.6307 12.7247 -30.4825
ltibia 42.8844
lfoot -10.9063 -19.1627
ltoes -36.3885
8
root -27.8838 15.7917 -13.2884 60.4454 69.9097 40.2091
lowerback -1.56307 -5.63475 -12.4377
upperback 2.18316 -7.28055 4.42947
thorax 5.39714 -4.16949 11.2139
lowerneck -6.82592 -0.844822 -9.84057
upperneck -10.9862 0.0861978 7.19253
head -2.14685 0.361316 3.79743
rclavicle -7.95139e-016 -1.27222e-014
rhumerus -11.9905 -12.2778 -78.2829
rradius 120.494
rwrist -0.361947
rhand -17.0906 20.0197
rfingers 7.12502
rthumb 9.14789 -9.76189
lclavicle -7.95139e-016 -1.27222e-014
lhumerus -60.6169 -17.1133 104.971
lradius 78.3767
lwrist 21.9805
lhand -33.5383 22.8786
lfingers 7.12502
lthumb -6.73389 52.7515
rfemur -59.8282 -1.90886 22.5821
rtibia 36.2666
rfoot -2.47504 -2.82662
rtoes -39.3182
lfemur 10.2936 15.1215 -29.367
ltibia 53.5921
lfoot 8.30962 -11.1083
ltoes -63.9815
9
root -27.2635 15.7796 -13.2432 61.0788 70.4257 41.9727
lowerback -0.407515 -5.58046 -11.0717
upperback 2.44371 -7.33797 4.18129
thorax 4.80629 -4.11436 10.2449
lowerneck -7.09405 -0.674597 -8.95676
upperneck -10.6231 0.211108 6.32726
head -2.23105 0.424822 3.69923
rclavicle -6.67916e-014 2.22639e-014
rhumerus -10.299 -7.98516 -78.2445
rradius 121.793
rwrist 5.79505
rhand -17.6019 19.1284
rfingers 7.12502
rthumb 8.65454 -10.6742
lclavicle -6.67916e-014 2.22639e-014
lhumerus -62.1234 -17.1382 105.735
lradius 74.9493
lwrist 23.1614
lhand -32.7284 23.4552
lfingers 7.12502
lthumb -5.95197 53.3516
rfemur -57.2671 -3.64102 22.731
rtibia 36.5777
rfoot -2.44435 -3.5314
rtoes -32.8603
lfemur 7.9786 15.0907 -28.8088
ltibia 61.4511
lfoot 5.63753 8.07696
ltoes -34.4686
